<?xml version="1.0" encoding="UTF-8"?>
<svg id="Ebene_1" data-name="Ebene 1" xmlns="http://www.w3.org/2000/svg" viewBox="0 0 288 480">
  <defs>
    <style>
      .cls-1 {
        fill: #000000;
        fill-rule: evenodd;
      }
    </style>
  </defs>
  <path class="cls-1" d="M48,96c26.51,0,48-21.49,48-48S74.51,0,48,0,0,21.49,0,48s21.49,48,48,48ZM48,288c26.51,0,48-21.49,48-48s-21.49-48-48-48S0,213.49,0,240s21.49,48,48,48ZM96,432c0,26.51-21.49,48-48,48S0,458.51,0,432s21.49-48,48-48,48,21.49,48,48ZM240,96c26.51,0,48-21.49,48-48S266.51,0,240,0s-48,21.49-48,48,21.49,48,48,48ZM288,240c0,26.51-21.49,48-48,48s-48-21.49-48-48,21.49-48,48-48,48,21.49,48,48ZM240,480c26.51,0,48-21.49,48-48s-21.49-48-48-48-48,21.49-48,48,21.49,48,48,48Z"/>
</svg>